<mxfile host="app.diagrams.net" modified="2021-03-30T03:53:27.129Z" agent="5.0 (Windows NT 10.0; Win64; x64) AppleWebKit/537.36 (KHTML, like Gecko) Chrome/89.0.4389.90 Safari/537.36" etag="w_Ywq7T3qoPxVxL2I5lj" version="14.4.9" type="github">
  <diagram id="hYJRWeMBrIbRIrvEc9ca" name="Page-1">
    <mxGraphModel dx="1209" dy="586" grid="1" gridSize="10" guides="1" tooltips="1" connect="1" arrows="1" fold="1" page="1" pageScale="1" pageWidth="850" pageHeight="1100" math="1" shadow="0">
      <root>
        <mxCell id="0" />
        <mxCell id="1" parent="0" />
        <mxCell id="V1MWa0irsegb_5Kvw5M2-1" value="" style="rounded=0;whiteSpace=wrap;html=1;" vertex="1" parent="1">
          <mxGeometry x="140" y="130" width="390" height="320" as="geometry" />
        </mxCell>
        <mxCell id="V1MWa0irsegb_5Kvw5M2-191" value="" style="group" vertex="1" connectable="0" parent="1">
          <mxGeometry x="153.75" y="192" width="376.25" height="228" as="geometry" />
        </mxCell>
        <mxCell id="V1MWa0irsegb_5Kvw5M2-79" value="" style="rounded=0;whiteSpace=wrap;html=1;" vertex="1" parent="V1MWa0irsegb_5Kvw5M2-191">
          <mxGeometry y="22.8" width="360" height="197.2" as="geometry" />
        </mxCell>
        <mxCell id="V1MWa0irsegb_5Kvw5M2-81" value="alpha&#39;" style="text;html=1;strokeColor=none;fillColor=none;align=center;verticalAlign=middle;whiteSpace=wrap;rounded=0;" vertex="1" parent="V1MWa0irsegb_5Kvw5M2-191">
          <mxGeometry x="0.22942073170731708" width="45.6547256097561" height="21.714285714285715" as="geometry" />
        </mxCell>
        <mxCell id="V1MWa0irsegb_5Kvw5M2-195" value="" style="shape=table;html=1;whiteSpace=wrap;startSize=0;container=1;collapsible=0;childLayout=tableLayout;" vertex="1" parent="V1MWa0irsegb_5Kvw5M2-191">
          <mxGeometry x="14.99" y="38.00285714285715" width="115.25" height="91.99285714285716" as="geometry" />
        </mxCell>
        <mxCell id="V1MWa0irsegb_5Kvw5M2-218" value="" style="shape=partialRectangle;html=1;whiteSpace=wrap;collapsible=0;dropTarget=0;pointerEvents=0;fillColor=none;top=0;left=0;bottom=0;right=0;points=[[0,0.5],[1,0.5]];portConstraint=eastwest;" vertex="1" parent="V1MWa0irsegb_5Kvw5M2-195">
          <mxGeometry width="115.25" height="23" as="geometry" />
        </mxCell>
        <mxCell id="V1MWa0irsegb_5Kvw5M2-219" value="&lt;span&gt;a&lt;/span&gt;" style="shape=partialRectangle;html=1;whiteSpace=wrap;connectable=0;overflow=hidden;fillColor=none;top=0;left=0;bottom=0;right=0;" vertex="1" parent="V1MWa0irsegb_5Kvw5M2-218">
          <mxGeometry width="51" height="23" as="geometry" />
        </mxCell>
        <mxCell id="V1MWa0irsegb_5Kvw5M2-220" value="1" style="shape=partialRectangle;html=1;whiteSpace=wrap;connectable=0;overflow=hidden;fillColor=none;top=0;left=0;bottom=0;right=0;" vertex="1" parent="V1MWa0irsegb_5Kvw5M2-218">
          <mxGeometry x="51" width="64" height="23" as="geometry" />
        </mxCell>
        <mxCell id="V1MWa0irsegb_5Kvw5M2-221" value="" style="shape=partialRectangle;html=1;whiteSpace=wrap;collapsible=0;dropTarget=0;pointerEvents=0;fillColor=none;top=0;left=0;bottom=0;right=0;points=[[0,0.5],[1,0.5]];portConstraint=eastwest;" vertex="1" parent="V1MWa0irsegb_5Kvw5M2-195">
          <mxGeometry y="23" width="115.25" height="24" as="geometry" />
        </mxCell>
        <mxCell id="V1MWa0irsegb_5Kvw5M2-222" value="&lt;span&gt;z&lt;/span&gt;" style="shape=partialRectangle;html=1;whiteSpace=wrap;connectable=0;overflow=hidden;fillColor=none;top=0;left=0;bottom=0;right=0;" vertex="1" parent="V1MWa0irsegb_5Kvw5M2-221">
          <mxGeometry width="51" height="24" as="geometry" />
        </mxCell>
        <mxCell id="V1MWa0irsegb_5Kvw5M2-223" value="&lt;span&gt;3&lt;/span&gt;" style="shape=partialRectangle;html=1;whiteSpace=wrap;connectable=0;overflow=hidden;fillColor=none;top=0;left=0;bottom=0;right=0;" vertex="1" parent="V1MWa0irsegb_5Kvw5M2-221">
          <mxGeometry x="51" width="64" height="24" as="geometry" />
        </mxCell>
        <mxCell id="V1MWa0irsegb_5Kvw5M2-230" value="" style="shape=partialRectangle;html=1;whiteSpace=wrap;collapsible=0;dropTarget=0;pointerEvents=0;fillColor=none;top=0;left=0;bottom=0;right=0;points=[[0,0.5],[1,0.5]];portConstraint=eastwest;" vertex="1" parent="V1MWa0irsegb_5Kvw5M2-195">
          <mxGeometry y="47" width="115.25" height="22" as="geometry" />
        </mxCell>
        <mxCell id="V1MWa0irsegb_5Kvw5M2-231" value="&lt;span&gt;beta&lt;/span&gt;" style="shape=partialRectangle;html=1;whiteSpace=wrap;connectable=0;overflow=hidden;fillColor=none;top=0;left=0;bottom=0;right=0;" vertex="1" parent="V1MWa0irsegb_5Kvw5M2-230">
          <mxGeometry width="51" height="22" as="geometry" />
        </mxCell>
        <mxCell id="V1MWa0irsegb_5Kvw5M2-232" value="&lt;span style=&quot;font-family: &amp;#34;katex_math&amp;#34; , &amp;#34;times new roman&amp;#34; , &amp;#34;times&amp;#34; , serif ; font-size: 13.8px&quot;&gt;λ(3)&lt;/span&gt;" style="shape=partialRectangle;html=1;whiteSpace=wrap;connectable=0;overflow=hidden;fillColor=none;top=0;left=0;bottom=0;right=0;" vertex="1" parent="V1MWa0irsegb_5Kvw5M2-230">
          <mxGeometry x="51" width="64" height="22" as="geometry" />
        </mxCell>
        <mxCell id="V1MWa0irsegb_5Kvw5M2-259" value="" style="shape=partialRectangle;html=1;whiteSpace=wrap;collapsible=0;dropTarget=0;pointerEvents=0;fillColor=none;top=0;left=0;bottom=0;right=0;points=[[0,0.5],[1,0.5]];portConstraint=eastwest;" vertex="1" parent="V1MWa0irsegb_5Kvw5M2-195">
          <mxGeometry y="69" width="115.25" height="23" as="geometry" />
        </mxCell>
        <mxCell id="V1MWa0irsegb_5Kvw5M2-260" value="gamma" style="shape=partialRectangle;html=1;whiteSpace=wrap;connectable=0;overflow=hidden;fillColor=none;top=0;left=0;bottom=0;right=0;" vertex="1" parent="V1MWa0irsegb_5Kvw5M2-259">
          <mxGeometry width="51" height="23" as="geometry" />
        </mxCell>
        <mxCell id="V1MWa0irsegb_5Kvw5M2-261" value="&lt;span style=&quot;font-family: &amp;#34;katex_math&amp;#34; , &amp;#34;times new roman&amp;#34; , &amp;#34;times&amp;#34; , serif ; font-size: 13.8px&quot;&gt;λ(6)&lt;/span&gt;" style="shape=partialRectangle;html=1;whiteSpace=wrap;connectable=0;overflow=hidden;fillColor=none;top=0;left=0;bottom=0;right=0;" vertex="1" parent="V1MWa0irsegb_5Kvw5M2-259">
          <mxGeometry x="51" width="64" height="23" as="geometry" />
        </mxCell>
        <mxCell id="V1MWa0irsegb_5Kvw5M2-224" value="" style="edgeStyle=segmentEdgeStyle;endArrow=classic;html=1;strokeColor=#0000FF;entryX=0.5;entryY=0;entryDx=0;entryDy=0;exitX=1;exitY=0.5;exitDx=0;exitDy=0;" edge="1" parent="V1MWa0irsegb_5Kvw5M2-191" source="V1MWa0irsegb_5Kvw5M2-230" target="V1MWa0irsegb_5Kvw5M2-79">
          <mxGeometry width="50" height="50" relative="1" as="geometry">
            <mxPoint x="162.25" y="119.42857142857143" as="sourcePoint" />
            <mxPoint x="162.25" y="67.31428571428572" as="targetPoint" />
          </mxGeometry>
        </mxCell>
        <mxCell id="V1MWa0irsegb_5Kvw5M2-225" value="" style="edgeStyle=segmentEdgeStyle;endArrow=classic;html=1;strokeColor=#0000FF;entryX=0.5;entryY=0;entryDx=0;entryDy=0;exitX=1;exitY=0.5;exitDx=0;exitDy=0;" edge="1" parent="V1MWa0irsegb_5Kvw5M2-191" source="V1MWa0irsegb_5Kvw5M2-259" target="V1MWa0irsegb_5Kvw5M2-79">
          <mxGeometry width="50" height="50" relative="1" as="geometry">
            <mxPoint x="162.25" y="143.31428571428572" as="sourcePoint" />
            <mxPoint x="192.25" y="59.714285714285715" as="targetPoint" />
          </mxGeometry>
        </mxCell>
        <mxCell id="V1MWa0irsegb_5Kvw5M2-211" value="" style="endArrow=classic;html=1;dashed=1;strokeColor=#FF0000;exitX=0;exitY=0.5;exitDx=0;exitDy=0;" edge="1" parent="V1MWa0irsegb_5Kvw5M2-191" source="V1MWa0irsegb_5Kvw5M2-208" target="V1MWa0irsegb_5Kvw5M2-199">
          <mxGeometry width="50" height="50" relative="1" as="geometry">
            <mxPoint x="199.25" y="164" as="sourcePoint" />
            <mxPoint x="-23.75" y="104.94117647058829" as="targetPoint" />
          </mxGeometry>
        </mxCell>
        <mxCell id="V1MWa0irsegb_5Kvw5M2-193" value="" style="rounded=0;whiteSpace=wrap;html=1;" vertex="1" parent="V1MWa0irsegb_5Kvw5M2-191">
          <mxGeometry x="194" y="55.23" width="150" height="154.77" as="geometry" />
        </mxCell>
        <mxCell id="V1MWa0irsegb_5Kvw5M2-194" value="omega&#39;" style="text;html=1;strokeColor=none;fillColor=none;align=center;verticalAlign=middle;whiteSpace=wrap;rounded=0;" vertex="1" parent="V1MWa0irsegb_5Kvw5M2-191">
          <mxGeometry x="197.75" y="27.005714285714305" width="48.75" height="21.714285714285715" as="geometry" />
        </mxCell>
        <mxCell id="V1MWa0irsegb_5Kvw5M2-216" value="" style="group" vertex="1" connectable="0" parent="V1MWa0irsegb_5Kvw5M2-191">
          <mxGeometry x="226.25" y="48.715714285714306" width="150" height="147.65714285714287" as="geometry" />
        </mxCell>
        <mxCell id="V1MWa0irsegb_5Kvw5M2-202" value="" style="rounded=0;whiteSpace=wrap;html=1;" vertex="1" parent="V1MWa0irsegb_5Kvw5M2-216">
          <mxGeometry x="5.36" y="25.76" width="94.64" height="94.24" as="geometry" />
        </mxCell>
        <mxCell id="V1MWa0irsegb_5Kvw5M2-203" value="beta&#39;" style="text;html=1;strokeColor=none;fillColor=none;align=center;verticalAlign=middle;whiteSpace=wrap;rounded=0;" vertex="1" parent="V1MWa0irsegb_5Kvw5M2-216">
          <mxGeometry x="6.696428571428571" width="27.857142857142858" height="32.81269841269842" as="geometry" />
        </mxCell>
        <mxCell id="V1MWa0irsegb_5Kvw5M2-204" value="" style="shape=table;html=1;whiteSpace=wrap;startSize=0;container=1;collapsible=0;childLayout=tableLayout;" vertex="1" parent="V1MWa0irsegb_5Kvw5M2-216">
          <mxGeometry x="15.07" y="30.400000000000002" width="69.64" height="54.28571428571429" as="geometry" />
        </mxCell>
        <mxCell id="V1MWa0irsegb_5Kvw5M2-205" value="" style="shape=partialRectangle;html=1;whiteSpace=wrap;collapsible=0;dropTarget=0;pointerEvents=0;fillColor=none;top=0;left=0;bottom=0;right=0;points=[[0,0.5],[1,0.5]];portConstraint=eastwest;" vertex="1" parent="V1MWa0irsegb_5Kvw5M2-204">
          <mxGeometry width="69.64" height="28" as="geometry" />
        </mxCell>
        <mxCell id="V1MWa0irsegb_5Kvw5M2-206" value="b" style="shape=partialRectangle;html=1;whiteSpace=wrap;connectable=0;overflow=hidden;fillColor=none;top=0;left=0;bottom=0;right=0;" vertex="1" parent="V1MWa0irsegb_5Kvw5M2-205">
          <mxGeometry width="24" height="28" as="geometry" />
        </mxCell>
        <mxCell id="V1MWa0irsegb_5Kvw5M2-207" value="&lt;span style=&quot;font-family: &amp;#34;katex_math&amp;#34; , &amp;#34;times new roman&amp;#34; , &amp;#34;times&amp;#34; , serif ; font-size: 1.15em&quot;&gt;2&lt;/span&gt;" style="shape=partialRectangle;html=1;whiteSpace=wrap;connectable=0;overflow=hidden;fillColor=none;top=0;left=0;bottom=0;right=0;" vertex="1" parent="V1MWa0irsegb_5Kvw5M2-205">
          <mxGeometry x="24" width="46" height="28" as="geometry" />
        </mxCell>
        <mxCell id="V1MWa0irsegb_5Kvw5M2-242" value="" style="shape=partialRectangle;html=1;whiteSpace=wrap;collapsible=0;dropTarget=0;pointerEvents=0;fillColor=none;top=0;left=0;bottom=0;right=0;points=[[0,0.5],[1,0.5]];portConstraint=eastwest;" vertex="1" parent="V1MWa0irsegb_5Kvw5M2-204">
          <mxGeometry y="28" width="69.64" height="26" as="geometry" />
        </mxCell>
        <mxCell id="V1MWa0irsegb_5Kvw5M2-243" value="a" style="shape=partialRectangle;html=1;whiteSpace=wrap;connectable=0;overflow=hidden;fillColor=none;top=0;left=0;bottom=0;right=0;" vertex="1" parent="V1MWa0irsegb_5Kvw5M2-242">
          <mxGeometry width="24" height="26" as="geometry" />
        </mxCell>
        <mxCell id="V1MWa0irsegb_5Kvw5M2-244" value="&lt;span style=&quot;font-family: &amp;#34;katex_math&amp;#34; , &amp;#34;times new roman&amp;#34; , &amp;#34;times&amp;#34; , serif ; font-size: 13.8px&quot;&gt;5&lt;/span&gt;" style="shape=partialRectangle;html=1;whiteSpace=wrap;connectable=0;overflow=hidden;fillColor=none;top=0;left=0;bottom=0;right=0;" vertex="1" parent="V1MWa0irsegb_5Kvw5M2-242">
          <mxGeometry x="24" width="46" height="26" as="geometry" />
        </mxCell>
        <mxCell id="V1MWa0irsegb_5Kvw5M2-208" value="&lt;span style=&quot;font-family: &amp;#34;katex_main&amp;#34; , &amp;#34;times new roman&amp;#34; , &amp;#34;times&amp;#34; , serif ; font-size: 18.4px&quot;&gt;Π=5&lt;/span&gt;" style="text;html=1;strokeColor=none;fillColor=none;align=center;verticalAlign=middle;whiteSpace=wrap;rounded=0;" vertex="1" parent="V1MWa0irsegb_5Kvw5M2-216">
          <mxGeometry x="6.697142857142857" y="88.18758730158729" width="42.857142857142854" height="32.81269841269842" as="geometry" />
        </mxCell>
        <mxCell id="V1MWa0irsegb_5Kvw5M2-199" value="&lt;span style=&quot;font-family: &amp;#34;katex_main&amp;#34; , &amp;#34;times new roman&amp;#34; , &amp;#34;times&amp;#34; , serif ; font-size: 18.4px&quot;&gt;Π=9&lt;/span&gt;" style="text;html=1;strokeColor=none;fillColor=none;align=center;verticalAlign=middle;whiteSpace=wrap;rounded=0;" vertex="1" parent="V1MWa0irsegb_5Kvw5M2-191">
          <mxGeometry x="194" y="190" width="40" height="20" as="geometry" />
        </mxCell>
        <mxCell id="V1MWa0irsegb_5Kvw5M2-265" value="" style="endArrow=classic;html=1;dashed=1;entryX=0.5;entryY=0;entryDx=0;entryDy=0;strokeColor=#FF0000;exitX=0;exitY=0.75;exitDx=0;exitDy=0;" edge="1" parent="V1MWa0irsegb_5Kvw5M2-191" source="V1MWa0irsegb_5Kvw5M2-208" target="V1MWa0irsegb_5Kvw5M2-199">
          <mxGeometry width="50" height="50" relative="1" as="geometry">
            <mxPoint x="204" y="210" as="sourcePoint" />
            <mxPoint x="11.25" y="248" as="targetPoint" />
            <Array as="points">
              <mxPoint x="214.25" y="162" />
            </Array>
          </mxGeometry>
        </mxCell>
        <mxCell id="V1MWa0irsegb_5Kvw5M2-2" value="Global Environment" style="text;html=1;strokeColor=none;fillColor=none;align=center;verticalAlign=middle;whiteSpace=wrap;rounded=0;" vertex="1" parent="1">
          <mxGeometry x="140" y="110" width="110" height="20" as="geometry" />
        </mxCell>
        <mxCell id="V1MWa0irsegb_5Kvw5M2-74" value="&lt;span style=&quot;font-family: &amp;#34;katex_main&amp;#34; , &amp;#34;times new roman&amp;#34; , &amp;#34;times&amp;#34; , serif ; font-size: 18.4px&quot;&gt;Π=12&lt;/span&gt;" style="text;html=1;strokeColor=none;fillColor=none;align=center;verticalAlign=middle;whiteSpace=wrap;rounded=0;" vertex="1" parent="1">
          <mxGeometry x="145" y="430" width="40" height="20" as="geometry" />
        </mxCell>
        <mxCell id="V1MWa0irsegb_5Kvw5M2-87" value="" style="endArrow=classic;html=1;dashed=1;entryX=0.25;entryY=0;entryDx=0;entryDy=0;strokeColor=#FF0000;exitX=0;exitY=0.5;exitDx=0;exitDy=0;" edge="1" parent="1" source="V1MWa0irsegb_5Kvw5M2-199" target="V1MWa0irsegb_5Kvw5M2-74">
          <mxGeometry width="50" height="50" relative="1" as="geometry">
            <mxPoint x="165" y="360" as="sourcePoint" />
            <mxPoint x="210" y="410" as="targetPoint" />
            <Array as="points">
              <mxPoint x="200" y="390" />
            </Array>
          </mxGeometry>
        </mxCell>
        <mxCell id="V1MWa0irsegb_5Kvw5M2-90" value="Q3 a." style="text;strokeColor=none;fillColor=none;html=1;fontSize=24;fontStyle=1;verticalAlign=middle;align=center;" vertex="1" parent="1">
          <mxGeometry x="145" y="50" width="100" height="40" as="geometry" />
        </mxCell>
        <mxCell id="V1MWa0irsegb_5Kvw5M2-180" value="" style="shape=table;html=1;whiteSpace=wrap;startSize=0;container=1;collapsible=0;childLayout=tableLayout;" vertex="1" parent="1">
          <mxGeometry x="153.75" y="140" width="120" height="40" as="geometry" />
        </mxCell>
        <mxCell id="V1MWa0irsegb_5Kvw5M2-181" value="" style="shape=partialRectangle;html=1;whiteSpace=wrap;collapsible=0;dropTarget=0;pointerEvents=0;fillColor=none;top=0;left=0;bottom=0;right=0;points=[[0,0.5],[1,0.5]];portConstraint=eastwest;" vertex="1" parent="V1MWa0irsegb_5Kvw5M2-180">
          <mxGeometry width="120" height="20" as="geometry" />
        </mxCell>
        <mxCell id="V1MWa0irsegb_5Kvw5M2-182" value="alpha" style="shape=partialRectangle;html=1;whiteSpace=wrap;connectable=0;overflow=hidden;fillColor=none;top=0;left=0;bottom=0;right=0;" vertex="1" parent="V1MWa0irsegb_5Kvw5M2-181">
          <mxGeometry width="60" height="20" as="geometry" />
        </mxCell>
        <mxCell id="V1MWa0irsegb_5Kvw5M2-183" value="&lt;span style=&quot;font-family: &amp;#34;katex_math&amp;#34; , &amp;#34;times new roman&amp;#34; , &amp;#34;times&amp;#34; , serif ; font-size: 13.8px&quot;&gt;λ(1)&lt;/span&gt;" style="shape=partialRectangle;html=1;whiteSpace=wrap;connectable=0;overflow=hidden;fillColor=none;top=0;left=0;bottom=0;right=0;" vertex="1" parent="V1MWa0irsegb_5Kvw5M2-181">
          <mxGeometry x="60" width="60" height="20" as="geometry" />
        </mxCell>
        <mxCell id="V1MWa0irsegb_5Kvw5M2-184" value="" style="shape=partialRectangle;html=1;whiteSpace=wrap;collapsible=0;dropTarget=0;pointerEvents=0;fillColor=none;top=0;left=0;bottom=0;right=0;points=[[0,0.5],[1,0.5]];portConstraint=eastwest;" vertex="1" parent="V1MWa0irsegb_5Kvw5M2-180">
          <mxGeometry y="20" width="120" height="20" as="geometry" />
        </mxCell>
        <mxCell id="V1MWa0irsegb_5Kvw5M2-185" value="omega" style="shape=partialRectangle;html=1;whiteSpace=wrap;connectable=0;overflow=hidden;fillColor=none;top=0;left=0;bottom=0;right=0;" vertex="1" parent="V1MWa0irsegb_5Kvw5M2-184">
          <mxGeometry width="60" height="20" as="geometry" />
        </mxCell>
        <mxCell id="V1MWa0irsegb_5Kvw5M2-186" value="&lt;span style=&quot;font-family: &amp;#34;katex_math&amp;#34; , &amp;#34;times new roman&amp;#34; , &amp;#34;times&amp;#34; , serif ; font-size: 13.8px&quot;&gt;λ(2)&lt;/span&gt;" style="shape=partialRectangle;html=1;whiteSpace=wrap;connectable=0;overflow=hidden;fillColor=none;top=0;left=0;bottom=0;right=0;" vertex="1" parent="V1MWa0irsegb_5Kvw5M2-184">
          <mxGeometry x="60" width="60" height="20" as="geometry" />
        </mxCell>
        <mxCell id="V1MWa0irsegb_5Kvw5M2-76" value="" style="edgeStyle=segmentEdgeStyle;endArrow=classic;html=1;strokeColor=#0000FF;entryX=0.5;entryY=0;entryDx=0;entryDy=0;" edge="1" parent="1" target="V1MWa0irsegb_5Kvw5M2-1">
          <mxGeometry width="50" height="50" relative="1" as="geometry">
            <mxPoint x="260" y="150" as="sourcePoint" />
            <mxPoint x="290" y="130" as="targetPoint" />
            <Array as="points">
              <mxPoint x="335" y="150" />
            </Array>
          </mxGeometry>
        </mxCell>
        <mxCell id="V1MWa0irsegb_5Kvw5M2-187" value="" style="edgeStyle=segmentEdgeStyle;endArrow=classic;html=1;strokeColor=#0000FF;" edge="1" parent="1" target="V1MWa0irsegb_5Kvw5M2-79">
          <mxGeometry width="50" height="50" relative="1" as="geometry">
            <mxPoint x="261" y="172.5" as="sourcePoint" />
            <mxPoint x="280" y="147.5" as="targetPoint" />
            <Array as="points">
              <mxPoint x="261" y="190" />
              <mxPoint x="210" y="190" />
            </Array>
          </mxGeometry>
        </mxCell>
      </root>
    </mxGraphModel>
  </diagram>
</mxfile>
